<?xml version="1.0" standalone="no"?>
<!DOCTYPE svg PUBLIC "-//W3C//DTD SVG 20010904//EN"
 "http://www.w3.org/TR/2001/REC-SVG-20010904/DTD/svg10.dtd">
<svg version="1.0" xmlns="http://www.w3.org/2000/svg"
 width="700.000000pt" height="700.000000pt" viewBox="0 0 700.000000 700.000000"
 preserveAspectRatio="xMidYMid meet">
<metadata>
Created by potrace 1.11, written by Peter Selinger 2001-2013
</metadata>
<g transform="translate(0.000000,700.000000) scale(0.100000,-0.100000)"
fill="#000000" stroke="none">
<path d="M1955 6856 c-238 -58 -408 -282 -399 -523 8 -216 161 -411 374 -478
75 -24 656 -30 764 -8 100 21 225 90 273 153 9 12 18 8 60 -32 53 -48 171
-111 238 -124 22 -4 168 -9 325 -10 157 -1 290 -3 295 -3 6 -1 10 -34 10 -79
1 -173 103 -339 263 -429 109 -61 142 -66 477 -67 165 -1 329 2 365 6 98 13
214 73 295 154 36 36 65 70 65 76 0 5 9 22 19 37 48 67 76 229 58 333 -34 193
-193 363 -386 413 -51 13 -122 17 -354 18 l-290 2 -2 76 c-7 225 -170 424
-395 484 -44 12 -123 14 -400 12 -330 -2 -348 -3 -405 -24 -68 -26 -148 -77
-190 -121 l-28 -30 -61 51 c-65 54 -137 91 -218 113 -69 18 -680 18 -753 0z
m737 -269 c65 -29 104 -68 131 -127 58 -129 5 -279 -120 -341 -47 -23 -54 -24
-358 -25 -272 -1 -316 1 -356 16 -128 48 -192 166 -166 306 12 60 72 133 137
166 l54 27 312 1 c308 0 313 0 366 -23z m1301 -1 c199 -88 204 -367 9 -463
l-57 -28 -320 0 c-315 0 -321 0 -363 23 -125 66 -176 191 -133 320 22 65 70
117 136 148 49 22 57 23 362 23 307 1 313 1 366 -23z m1028 -573 c166 -74 215
-274 98 -406 -77 -88 -114 -95 -484 -92 -239 1 -286 4 -319 19 -96 41 -154
118 -163 216 -13 138 81 258 217 277 29 5 177 7 330 7 252 -1 280 -3 321 -21z"/>
<path d="M1245 5569 c-231 -22 -406 -186 -462 -434 -2 -11 -4 -194 -5 -408 l0
-387 -32 -26 c-172 -141 -388 -403 -485 -588 -17 -31 -34 -63 -38 -69 -48 -77
-154 -377 -178 -507 -34 -184 -38 -228 -39 -410 0 -213 6 -283 38 -445 41
-207 144 -461 264 -657 120 -195 332 -431 497 -554 44 -32 82 -61 85 -64 15
-16 218 -133 302 -173 123 -59 297 -119 422 -146 196 -43 270 -50 491 -46 222
4 240 6 405 42 119 26 391 114 410 133 3 3 27 15 54 28 44 21 47 24 34 40 -28
32 -97 151 -147 249 -62 123 -94 200 -140 335 l-36 106 -60 -30 c-111 -55
-268 -104 -400 -123 -67 -10 -249 -7 -332 5 -386 56 -727 282 -932 619 -69
114 -144 312 -158 421 -3 19 -9 55 -13 80 -5 25 -8 99 -8 165 2 293 75 513
258 775 78 111 299 297 436 367 118 60 286 115 393 129 25 3 57 8 71 12 14 3
248 7 520 8 272 2 524 5 560 9 133 13 255 99 314 224 l31 66 3 398 c3 336 1
407 -13 460 -49 193 -187 332 -386 388 -33 9 -245 12 -849 13 -443 1 -836 -2
-875 -5z m877 -520 c136 -29 217 -137 206 -274 -12 -140 -114 -234 -258 -234
-140 -1 -252 113 -252 258 0 122 82 221 207 250 22 5 41 9 42 10 1 1 26 -4 55
-10z m9 -3899 c43 -22 68 -62 69 -107 0 -76 -52 -133 -124 -133 -49 0 -77 15
-105 56 -74 108 44 244 160 184z"/>
<path d="M4046 5043 c-168 -31 -324 -166 -389 -338 -21 -58 -22 -73 -25 -472
l-3 -411 -66 -59 c-386 -338 -628 -794 -698 -1318 -23 -168 -9 -472 30 -660
144 -696 644 -1278 1311 -1525 93 -35 233 -76 294 -86 14 -2 46 -9 73 -14 91
-19 183 -25 362 -25 218 0 279 7 482 55 458 109 890 395 1173 780 204 275 330
576 386 920 26 155 25 511 -1 625 -3 11 -7 36 -9 55 -6 55 -53 229 -86 324
-83 235 -227 480 -393 669 l-60 68 -32 -58 c-82 -147 -236 -268 -393 -308 -73
-19 -117 -23 -222 -24 l-85 -1 35 -27 c117 -91 240 -235 323 -379 26 -44 47
-84 47 -87 0 -4 11 -30 24 -59 62 -135 93 -301 94 -493 0 -204 -39 -373 -132
-565 -15 -30 -32 -64 -39 -75 -172 -281 -405 -473 -697 -574 -141 -48 -231
-64 -400 -67 -257 -5 -455 45 -668 168 -335 193 -563 519 -633 901 -15 82 -19
317 -8 392 47 301 166 535 378 745 99 98 180 158 301 223 91 48 261 111 326
121 44 7 78 13 114 23 14 3 279 9 590 13 609 7 595 5 689 62 80 48 159 163
177 258 8 46 8 742 -1 800 -28 191 -187 364 -385 421 -63 18 -1689 20 -1784 2z
m987 -531 c89 -40 149 -134 149 -230 0 -102 -48 -183 -142 -237 -48 -28 -169
-28 -225 -1 -50 25 -100 78 -127 136 -29 63 -22 168 15 227 72 114 210 158
330 105z m-57 -3878 c41 -19 71 -59 77 -100 14 -103 -107 -180 -193 -122 -80
54 -82 159 -5 211 42 28 78 31 121 11z"/>
</g>
</svg>
