<?xml version="1.0" standalone="no"?>
<!DOCTYPE svg PUBLIC "-//W3C//DTD SVG 20010904//EN"
 "http://www.w3.org/TR/2001/REC-SVG-20010904/DTD/svg10.dtd">
<svg version="1.0" xmlns="http://www.w3.org/2000/svg"
 width="130.000000pt" height="130.000000pt" viewBox="0 0 130.000000 130.000000"
 preserveAspectRatio="xMidYMid meet">
<metadata>
Created by potrace 1.11, written by Peter Selinger 2001-2013
</metadata>
<g transform="translate(0.000000,130.000000) scale(0.100000,-0.100000)"
fill="#000000" stroke="none">
<path d="M992 1218 c-7 -7 -12 -8 -12 -3 0 4 -9 0 -20 -10 -11 -10 -20 -24
-20 -32 0 -7 -4 -13 -9 -13 -11 0 -7 -46 7 -82 29 -73 149 -72 187 2 19 36 19
54 0 93 -23 49 -103 75 -133 45z"/>
<path d="M886 1062 c-4 -4 -11 -7 -14 -8 -16 -1 -82 -38 -82 -46 0 -4 -6 -8
-13 -8 -7 0 -31 -20 -53 -44 l-40 -45 -39 14 c-41 14 -98 12 -103 -4 -1 -4
-22 -2 -45 6 -71 25 -87 20 -215 -59 l-121 -74 15 -30 c50 -98 104 -167 104
-134 0 6 5 10 11 10 7 0 35 15 63 34 28 18 68 42 88 53 21 11 35 23 31 27 -3
3 1 6 10 6 13 0 49 49 52 70 0 3 4 10 8 17 4 6 3 14 -3 18 -31 19 31 51 80 40
34 -8 46 -26 35 -53 -28 -62 -26 -163 3 -242 13 -36 29 -90 36 -120 17 -78 12
-228 -12 -315 -11 -41 -5 -60 23 -75 31 -17 75 0 75 28 0 10 3 22 7 26 7 7 8
11 19 86 14 91 9 222 -10 317 -4 17 31 134 61 203 3 8 7 18 8 23 2 4 4 9 5 12
1 3 3 10 4 15 1 13 21 13 21 0 0 -12 96 -139 134 -178 28 -28 39 -16 20 20 -8
13 -12 26 -11 31 1 4 -2 7 -7 7 -7 0 -26 37 -35 70 -1 3 -7 21 -14 40 -6 19
-13 49 -16 65 -2 17 -5 30 -6 30 -2 0 -7 59 -9 112 -1 23 -53 67 -65 55z
m-404 -184 c-3 -14 0 -17 13 -12 15 6 16 4 6 -14 -7 -12 -15 -22 -19 -22 -16
0 -36 19 -38 36 -4 24 3 33 25 31 12 -1 17 -7 13 -19z"/>
</g>
</svg>
